# xmcd
#
# Track frame offsets:
#	150
#	19329
#	35162
#	55791
#	72340
#	92648
#	107683
#	124764
#	140334
#	156205
#	172523
#	194106
#	209784
#	233819
#	252343
#	268493
#	288872
#	306173
#
# Disc length: 4277 seconds
#
# Revision: 0
# Processed by: cddbd v1.5.2PL0 Copyright (c) Steve Scherf et al.
# Submitted via: EasyCDDAExtractor 12.0.7.1
#
DISCID=1110b312
DTITLE=Стас Михайлов - Аллея шансона
DYEAR=2011
DGENRE=Chanson
TTITLE0=Быть хочу счастливым
TTITLE1=Где ты
TTITLE2=Ветер-бродяга
TTITLE3=Ты...
TTITLE4=Мы разные
TTITLE5=На крыльях любви
TTITLE6=Ушла
TTITLE7=Мир без тебя
TTITLE8=Игрок
TTITLE9=Лети душа
TTITLE10=Мы все
TTITLE11=Разрушительница
TTITLE12=Живой
TTITLE13=Петербург-Москва
TTITLE14=Отпусти (дуэт с Таисией Повалий)
TTITLE15=Героям России
TTITLE16=Летит по небу...
TTITLE17=Живи и знай
EXTD=
EXTT0=
EXTT1=
EXTT2=
EXTT3=
EXTT4=
EXTT5=
EXTT6=
EXTT7=
EXTT8=
EXTT9=
EXTT10=
EXTT11=
EXTT12=
EXTT13=
EXTT14=
EXTT15=
EXTT16=
EXTT17=
PLAYORDER=
